<svg xmlns="http://www.w3.org/2000/svg" viewBox="0 0 300 300"><style>
        @keyframes bounce {
        0%,
        20%,
        50%,
        80%,
        100% {
          transform: translateY(0);
        }
        40% {
          transform: translateY(-10px);
        }
        60% {
          transform: translateY(-5px);
        }
        70% {
          transform: translateY(0px);
        }
      }

        .bounce-animation-1 {
          animation: bounce 1s infinite ease-in-out;
          transform-origin: center;
           animation-delay: 0.0s;
        }
        .bounce-animation-2 {
          animation: bounce 1s infinite ease-in-out;
          transform-origin: center;
           animation-delay: 0.2s;
        }
        .bounce-animation-3 {
          animation: bounce 1s infinite ease-in-out;
          transform-origin: center;
           animation-delay: 0.4s;
        }
        </style><g class="bounce-animation-1" style="transform-origin:center"><path fill="#8636F7" d="M88.12 144.37c-4.43-1.48-10.37-2.62-14.85-.93-3.99 1.5-8.24 5.17-10.24 8.97-2.1 4-.2 9.33 1.29 13.25 1.53 4.01 4.09 7.88 8.38 9.2 4.57 1.4 10.36 1.33 14.65-.92 5.7-2.99 9.03-11.22 7.71-17.86.29-.42.49-.94.53-1.57.24-4.34-3.36-8.76-7.48-10.13z"></path><path fill="#212B50" d="M103.4 148.53c-2.6-3.25-5.46-6.46-9.15-8.5s-7.82-2.6-11.94-1.93c-8.24 1.34-14.54 8.32-16.06 16.38s1.45 17.35 9.87 20.17c4.09 1.37 9.06 1.37 13.28.67 3.97-.65 7.24-3.09 9.56-6.3s3.69-7.59 3.86-11.69-1.13-8.77-4.98-10.89c-2.82-1.55-5.35 2.77-2.52 4.32 2.16 1.19 2.56 3.94 2.51 6.24-.06 2.73-.81 5.5-2.15 7.88s-3.2 4.34-5.73 5.18c-1.71.56-3.49.62-5.28.63s-3.5 0-5.21-.33c-3.08-.6-5.54-2.1-7.06-4.89-1.45-2.64-1.83-5.81-1.47-8.77.73-6.1 4.83-11.66 10.84-13.36 3.25-.91 6.78-.7 9.78.92 3.4 1.83 5.94 4.85 8.31 7.82.84 1.06 2.66.88 3.54 0 1.04-1.04.85-2.48 0-3.54z"></path></g><g class="bounce-animation-2" style="transform-origin:center"><path fill="#8636F7" d="M158.98 149.59c-1-3.49-3.04-7.07-6.37-8.8-3.79-1.98-8.24-1.58-12.33-1.05-1.91.25-3.75.7-5.38 1.46-.12-.12-.25-.23-.39-.32-.49.43-1.1.79-1.83 1.03-.02.02-.04.04-.06.05-.32.35-.65.7-.97 1.05-.43.51-.82 1.06-1.17 1.63-.46.89-.86 1.93-1.4 3.29-.11.29-.25.55-.41.81-1.23 4.16-1.06 8.87.22 12.81 2.13 6.55 7.7 8.32 13.68 8.8 2.98-.18 5.93-.58 8.68-1.82 3.21-1.45 5.73-4.25 7.11-7.46 1.56-3.62 1.71-7.7.63-11.48z"></path><path fill="#212B50" d="M154.13 141.49c-4.2-.34-8.57-.62-12.65.66-3.67 1.15-6.71 3.49-8.92 6.63-4.52 6.43-3.79 15.06.97 21.12s14.66 9.3 22.18 6.31c3.81-1.52 6.44-4.62 8.11-8.29s3.08-8.02 3.12-12.23c.08-8.7-6.99-16.06-15.68-16.38-3.22-.12-3.21 4.88 0 5 5.16.19 9.85 4.33 10.58 9.47.48 3.4-.53 6.89-1.7 10.05-.95 2.56-2.31 5.43-4.69 6.95-5.13 3.28-13.11 1.2-17.13-2.95-3.88-4-5.05-10.17-2.32-15.12 1.44-2.61 3.74-4.73 6.6-5.67 3.71-1.22 7.7-.86 11.53-.55 1.35.11 2.5-1.23 2.5-2.5 0-1.44-1.15-2.39-2.5-2.5z"></path></g><g class="bounce-animation-3" style="transform-origin:center"><path fill="#8636F7" d="M233.31 148.09c-1.48-5.5-6.45-8.08-11.99-9.59-6.81-1.86-11.89 1.47-15.66 7.15-3.21 4.85-4.56 13.16-.95 18.1 3.58 4.9 10.35 7.2 16.22 6.39 10.76-1.48 18.1-13.27 12.37-22.05z"></path><path fill="#212B50" d="M215.87 138.4c-4.14-.46-8.57-.85-12.57.62s-6.92 4.6-8.53 8.59c-2.99 7.44-1.95 17.95 4.21 23.51s15.13 6.57 22.66 4.8c4.09-.96 7.82-3.25 10.06-6.87 2.12-3.42 2.82-7.73 2.38-11.69-.98-8.75-7.19-17.02-16.36-17.91-1.35-.13-2.5 1.24-2.5 2.5 0 1.46 1.15 2.37 2.5 2.5 11.97 1.17 16.49 22.05 4.25 26.18-5.69 1.92-13.04 1.32-18.12-2.01-5.48-3.6-6.52-11.27-5.05-17.22.79-3.19 2.53-6.21 5.7-7.51 3.54-1.45 7.69-.89 11.37-.48 1.34.15 2.5-1.26 2.5-2.5 0-1.48-1.15-2.35-2.5-2.5z"></path></g></svg>